<?xml version="1.0" standalone="no"?>
<!DOCTYPE svg PUBLIC "-//W3C//DTD SVG 20010904//EN"
 "http://www.w3.org/TR/2001/REC-SVG-20010904/DTD/svg10.dtd">
<svg version="1.0" xmlns="http://www.w3.org/2000/svg"
 width="500.000000pt" height="500.000000pt" viewBox="0 0 500.000000 500.000000"
 preserveAspectRatio="xMidYMid meet">

<g transform="translate(0.000000,500.000000) scale(0.100000,-0.100000)"
fill="#000000" stroke="none">
<path d="M0 2500 l0 -2500 2500 0 2500 0 0 2500 0 2500 -2500 0 -2500 0 0
-2500z m1436 239 c137 -84 149 -285 24 -392 -143 -123 -356 -26 -368 168 -2
35 1 80 8 100 15 44 71 110 114 132 67 36 158 32 222 -8z m497 2 c50 -30 51
-45 9 -75 -36 -26 -36 -26 -57 -6 -42 39 -135 17 -135 -31 0 -22 34 -40 120
-63 36 -9 72 -23 80 -29 104 -80 35 -228 -114 -244 -71 -8 -157 32 -187 88 -9
17 -4 22 36 40 l46 20 20 -25 c16 -20 29 -26 60 -26 49 0 79 15 79 39 0 26
-15 35 -98 60 -94 28 -132 61 -139 121 -13 132 152 210 280 131z m494 3 c23
-13 45 -29 48 -34 4 -6 -6 -25 -22 -43 l-29 -33 -29 18 c-42 25 -115 24 -149
-3 -73 -57 -75 -161 -4 -225 47 -44 114 -43 168 2 l30 26 29 -24 c17 -13 30
-28 30 -35 1 -19 -76 -79 -118 -91 -58 -18 -100 -14 -157 12 -140 65 -179 256
-76 376 75 88 183 109 279 54z m1351 6 c86 -53 96 -161 21 -229 l-30 -28 23
-29 c13 -16 48 -59 77 -96 l53 -68 -60 0 -60 0 -73 95 c-56 74 -77 95 -93 93
-19 -3 -21 -11 -24 -95 l-3 -93 -49 0 -50 0 0 235 0 235 118 0 c99 0 122 -3
150 -20z m-710 -57 c75 -178 172 -414 172 -423 0 -15 -175 -13 -187 3 -5 6
-27 55 -48 107 -21 52 -41 98 -44 103 -4 4 -28 -44 -53 -105 l-46 -113 -92 -3
c-72 -2 -91 0 -87 10 3 7 41 99 85 203 44 105 87 207 95 228 l16 37 84 0 85 0
20 -47z"/>
<path d="M1270 2663 c-103 -52 -107 -204 -6 -256 71 -37 151 4 177 91 32 107
-77 212 -171 165z"/>
<path d="M3617 2673 c-4 -3 -7 -26 -7 -50 l0 -43 54 0 c36 0 60 5 70 16 39 38
1 84 -70 84 -22 0 -44 -3 -47 -7z"/>
</g>
</svg>
